ffmpeg started on 2016-12-08 at 05:54:36
Report written to "Output/x264/results/ffmpeg/sintelslower11000k.log"
Command line:
Tools/ffmpeg/ffmpeg -benchmark -y -i Input/y4m/sintel.y4m -c:v libx264 -preset slower -b:v 11000k -an Output/x264/encoded/sintelslower11000k.mkv
ffmpeg version N-82227-gdb23fde Copyright (c) 2000-2016 the FFmpeg developers
  built with gcc 5.4.0 (Ubuntu 5.4.0-6ubuntu1~16.04.2) 20160609
  configuration: --prefix=/home/jaroslav/ffmpeg_build --pkg-config-flags=--static --extra-cflags=-I/home/jaroslav/ffmpeg_build/include --extra-ldflags=-L/home/jaroslav/ffmpeg_build/lib --bindir=/home/jaroslav/bin --enable-gpl --enable-libass --enable-libfdk-aac --enable-libfreetype --enable-libmp3lame --enable-libopus --enable-libtheora --enable-libvorbis --enable-libvpx --enable-libx264 --enable-libx265 --enable-nvenc --enable-libmfx --enable-libxvid --enable-libgsm --enable-libopencore-amrnb --enable-version3 --enable-nonfree
  libavutil      55. 35.100 / 55. 35.100
  libavcodec     57. 66.101 / 57. 66.101
  libavformat    57. 57.100 / 57. 57.100
  libavdevice    57.  2.100 / 57.  2.100
  libavfilter     6. 66.100 /  6. 66.100
  libswscale      4.  3.100 /  4.  3.100
  libswresample   2.  4.100 /  2.  4.100
  libpostproc    54.  2.100 / 54.  2.100
Input #0, yuv4mpegpipe, from 'Input/y4m/sintel.y4m':
  Duration: 00:00:20.83, start: 0.000000, bitrate: 2057307 kb/s
    Stream #0:0: Video: rawvideo (I420 / 0x30323449), yuv420p(progressive), 4096x1744, SAR 1:1 DAR 256:109, 24 fps, 24 tbr, 24 tbn, 24 tbc
[libx264 @ 0x35771c0] using SAR=1/1
[libx264 @ 0x35771c0] DPB size (8 frames, 223232 mbs) > level limit (6 frames, 184320 mbs)
[libx264 @ 0x35771c0] using cpu capabilities: MMX2 SSE2Fast SSSE3 SSE4.2 AVX FMA3 AVX2 LZCNT BMI2
[libx264 @ 0x35771c0] profile High, level 5.2
[libx264 @ 0x35771c0] 264 - core 148 - H.264/MPEG-4 AVC codec - Copyleft 2003-2016 - http://www.videolan.org/x264.html - options: cabac=1 ref=8 deblock=1:0:0 analyse=0x3:0x133 me=umh subme=9 psy=1 psy_rd=1.00:0.00 mixed_ref=1 me_range=16 chroma_me=1 trellis=2 8x8dct=1 cqm=0 deadzone=21,11 fast_pskip=1 chroma_qp_offset=-2 threads=6 lookahead_threads=1 sliced_threads=0 nr=0 decimate=1 interlaced=0 bluray_compat=0 constrained_intra=0 bframes=3 b_pyramid=2 b_adapt=2 b_bias=0 direct=3 weightb=1 open_gop=0 weightp=2 keyint=250 keyint_min=24 scenecut=40 intra_refresh=0 rc_lookahead=60 rc=abr mbtree=1 bitrate=11000 ratetol=1.0 qcomp=0.60 qpmin=0 qpmax=69 qpstep=4 ip_ratio=1.40 aq=1:1.00
Output #0, matroska, to 'Output/x264/encoded/sintelslower11000k.mkv':
  Metadata:
    encoder         : Lavf57.57.100
    Stream #0:0: Video: h264 (libx264) (H264 / 0x34363248), yuv420p, 4096x1744 [SAR 1:1 DAR 256:109], q=-1--1, 11000 kb/s, 24 fps, 1k tbn, 24 tbc
    Metadata:
      encoder         : Lavc57.66.101 libx264
    Side data:
      cpb: bitrate max/min/avg: 0/0/11000000 buffer size: 0 vbv_delay: -1
Stream mapping:
  Stream #0:0 -> #0:0 (rawvideo (native) -> h264 (libx264))
Press [q] to stop, [?] for help
frame=   10 fps=0.0 q=0.0 size=       0kB time=00:00:00.00 bitrate=N/A speed=   0x    frame=   19 fps= 15 q=0.0 size=       0kB time=00:00:00.00 bitrate=N/A speed=   0x    frame=   28 fps= 15 q=0.0 size=       0kB time=00:00:00.00 bitrate=N/A speed=   0x    frame=   37 fps= 16 q=0.0 size=       0kB time=00:00:00.00 bitrate=N/A speed=   0x    frame=   46 fps= 16 q=0.0 size=       0kB time=00:00:00.00 bitrate=N/A speed=   0x    frame=   55 fps= 16 q=0.0 size=       0kB time=00:00:00.00 bitrate=N/A speed=   0x    frame=   64 fps= 16 q=0.0 size=       0kB time=00:00:00.00 bitrate=N/A speed=   0x    frame=   67 fps=6.3 q=0.0 size=       0kB time=00:00:00.00 bitrate=N/A speed=   0x    frame=   68 fps=5.6 q=0.0 size=       0kB time=00:00:00.00 bitrate=N/A speed=   0x    frame=   73 fps=5.3 q=33.0 size=       1kB time=00:00:00.00 bitrate=5888.0kbits/s speed=7.23e-05x    frame=   74 fps=5.0 q=27.0 size=       1kB time=00:00:00.04 bitrate= 136.9kbits/s speed=0.00288x    frame=   75 fps=4.8 q=30.0 size=       1kB time=00:00:00.08 bitrate=  70.1kbits/s speed=0.0054x    frame=   77 fps=4.5 q=37.0 size=       1kB time=00:00:00.16 bitrate=  35.0kbits/s speed=0.00981x    frame=   80 fps=4.3 q=42.0 size=       1kB time=00:00:00.29 bitrate=  20.1kbits/s speed=0.0157x    frame=   83 fps=4.2 q=42.0 size=       1kB time=00:00:00.41 bitrate=  14.1kbits/s speed=0.0213x    frame=   85 fps=4.2 q=41.0 size=       1kB time=00:00:00.50 bitrate=  11.8kbits/s speed=0.0248x    frame=   86 fps=4.0 q=41.0 size=       1kB time=00:00:00.54 bitrate=  10.8kbits/s speed=0.0251x    frame=   90 fps=4.0 q=41.0 size=       1kB time=00:00:00.70 bitrate=   8.3kbits/s speed=0.0318x    frame=   92 fps=3.8 q=41.0 size=       1kB time=00:00:00.79 bitrate=   7.4kbits/s speed=0.0332x    frame=   94 fps=3.8 q=41.0 size=       1kB time=00:00:00.87 bitrate=   6.7kbits/s speed=0.0351x    frame=   95 fps=3.7 q=41.0 size=       1kB time=00:00:00.91 bitrate=   6.4kbits/s speed=0.0359x    frame=   98 fps=3.7 q=40.0 size=       1kB time=00:00:01.04 bitrate=   5.6kbits/s speed=0.0395x    frame=   99 fps=3.7 q=40.0 size=       1kB time=00:00:01.08 bitrate=   5.4kbits/s speed=0.0401x    frame=  101 fps=3.7 q=40.0 size=       1kB time=00:00:01.16 bitrate=   5.0kbits/s speed=0.0423x    frame=  102 fps=3.6 q=40.0 size=       1kB time=00:00:01.20 bitrate=   4.9kbits/s speed=0.0422x    frame=  104 fps=3.5 q=40.0 size=       1kB time=00:00:01.29 bitrate=   4.6kbits/s speed=0.044x    frame=  106 fps=3.5 q=39.0 size=       1kB time=00:00:01.37 bitrate=   4.3kbits/s speed=0.0451x    frame=  108 fps=3.4 q=39.0 size=       1kB time=00:00:01.45 bitrate=   4.0kbits/s speed=0.0464x    frame=  110 fps=3.4 q=39.0 size=       1kB time=00:00:01.54 bitrate=   3.8kbits/s speed=0.0479x    frame=  111 fps=3.4 q=39.0 size=       1kB time=00:00:01.58 bitrate=   3.7kbits/s speed=0.0484x    frame=  113 fps=3.4 q=39.0 size=       1kB time=00:00:01.66 bitrate=   3.5kbits/s speed=0.0501x    frame=  114 fps=3.4 q=39.0 size=       1kB time=00:00:01.70 bitrate=   3.4kbits/s speed=0.0506x    frame=  116 fps=3.3 q=38.0 size=       1kB time=00:00:01.79 bitrate=   3.3kbits/s speed=0.0516x    frame=  118 fps=3.3 q=38.0 size=       1kB time=00:00:01.87 bitrate=   3.1kbits/s speed=0.053x    frame=  121 fps=3.3 q=38.0 size=       1kB time=00:00:02.00 bitrate=   2.9kbits/s speed=0.0554x    frame=  122 fps=3.3 q=38.0 size=       1kB time=00:00:02.04 bitrate=   2.9kbits/s speed=0.0554x    frame=  123 fps=3.3 q=38.0 size=       1kB time=00:00:02.08 bitrate=   2.8kbits/s speed=0.0553x    frame=  125 fps=3.2 q=38.0 size=       1kB time=00:00:02.16 bitrate=   2.7kbits/s speed=0.0555x    frame=  126 fps=3.2 q=38.0 size=       1kB time=00:00:02.20 bitrate=   2.7kbits/s speed=0.0558x    frame=  128 fps=3.2 q=38.0 size=       1kB time=00:00:02.29 bitrate=   2.6kbits/s speed=0.0566x    frame=  129 fps=3.1 q=38.0 size=       1kB time=00:00:02.33 bitrate=   2.5kbits/s speed=0.0568x    frame=  130 fps=3.1 q=38.0 size=       1kB time=00:00:02.37 bitrate=   2.5kbits/s speed=0.0571x    frame=  131 fps=3.1 q=38.0 size=       1kB time=00:00:02.41 bitrate=   2.4kbits/s speed=0.0573x    frame=  132 fps=3.1 q=38.0 size=       1kB time=00:00:02.45 bitrate=   2.4kbits/s speed=0.0576x    frame=  133 fps=3.1 q=38.0 size=       1kB time=00:00:02.50 bitrate=   2.4kbits/s speed=0.0577x    frame=  135 fps=3.1 q=38.0 size=       1kB time=00:00:02.58 bitrate=   2.3kbits/s speed=0.0586x    frame=  136 fps=3.0 q=38.0 size=       1kB time=00:00:02.62 bitrate=   2.2kbits/s speed=0.0588x    frame=  137 fps=3.0 q=37.0 size=       1kB time=00:00:02.66 bitrate=   2.2kbits/s speed=0.0583x    frame=  138 fps=3.0 q=37.0 size=       1kB time=00:00:02.70 bitrate=   2.2kbits/s speed=0.0585x    frame=  139 fps=3.0 q=37.0 size=       1kB time=00:00:02.75 bitrate=   2.1kbits/s speed=0.0587x    frame=  141 fps=3.0 q=37.0 size=       1kB time=00:00:02.83 bitrate=   2.1kbits/s speed=0.0596x    frame=  143 fps=2.9 q=37.0 size=       1kB time=00:00:02.91 bitrate=   2.0kbits/s speed=0.0602x    frame=  144 fps=2.9 q=37.0 size=       1kB time=00:00:02.95 bitrate=   2.0kbits/s speed=0.0602x    frame=  145 fps=2.9 q=37.0 size=       1kB time=00:00:03.00 bitrate=   2.0kbits/s speed=0.0602x    frame=  147 fps=2.9 q=37.0 size=       1kB time=00:00:03.08 bitrate=   1.9kbits/s speed=0.0603x    frame=  149 fps=2.9 q=37.0 size=       1kB time=00:00:03.16 bitrate=   1.9kbits/s speed=0.0611x    frame=  151 fps=2.8 q=37.0 size=    5153kB time=00:00:03.25 bitrate=12984.7kbits/s speed=0.0613x    frame=  152 fps=2.8 q=37.0 size=    5153kB time=00:00:03.29 bitrate=12819.1kbits/s speed=0.0614x    frame=  153 fps=2.8 q=37.0 size=    5153kB time=00:00:03.33 bitrate=12661.5kbits/s speed=0.0612x    frame=  155 fps=2.8 q=37.0 size=    5153kB time=00:00:03.41 bitrate=12350.3kbits/s speed=0.0618x    frame=  156 fps=2.8 q=36.0 size=    5153kB time=00:00:03.45 bitrate=12203.9kbits/s speed=0.062x    frame=  158 fps=2.8 q=36.0 size=    5153kB time=00:00:03.54 bitrate=11914.6kbits/s speed=0.0623x    frame=  160 fps=2.8 q=36.0 size=    5153kB time=00:00:03.62 bitrate=11641.9kbits/s speed=0.0628x    frame=  161 fps=2.8 q=36.0 size=    5153kB time=00:00:03.66 bitrate=11508.6kbits/s speed=0.0628x    frame=  163 fps=2.8 q=36.0 size=    5153kB time=00:00:03.75 bitrate=11253.9kbits/s speed=0.0634x    frame=  165 fps=2.8 q=36.0 size=    5153kB time=00:00:03.83 bitrate=11010.3kbits/s speed=0.0641x    frame=  166 fps=2.7 q=36.0 size=    5153kB time=00:00:03.87 bitrate=10891.0kbits/s speed=0.0641x    frame=  167 fps=2.7 q=36.0 size=    5153kB time=00:00:03.91 bitrate=10774.2kbits/s speed=0.0637x    frame=  170 fps=2.7 q=36.0 size=    5153kB time=00:00:04.04 bitrate=10441.1kbits/s speed=0.065x    frame=  172 fps=2.7 q=36.0 size=    5153kB time=00:00:04.12 bitrate=10231.1kbits/s speed=0.0657x    frame=  173 fps=2.7 q=36.0 size=    5153kB time=00:00:04.16 bitrate=10128.0kbits/s speed=0.0647x    frame=  176 fps=2.7 q=36.0 size=    5153kB time=00:00:04.29 bitrate=9833.1kbits/s speed=0.0661x    frame=  179 fps=2.7 q=35.0 size=    5153kB time=00:00:04.41 bitrate=9554.9kbits/s speed=0.0667x    frame=  181 fps=2.7 q=33.0 size=    5153kB time=00:00:04.50 bitrate=9378.7kbits/s speed=0.0672x    frame=  182 fps=2.7 q=35.0 size=    5153kB time=00:00:04.54 bitrate=9292.0kbits/s speed=0.0672x    frame=  184 fps=2.7 q=35.0 size=    5153kB time=00:00:04.62 bitrate=9125.2kbits/s speed=0.0677x    frame=  186 fps=2.7 q=35.0 size=    6539kB time=00:00:04.70 bitrate=11375.3kbits/s speed=0.0684x    frame=  191 fps=2.7 q=35.0 size=    6539kB time=00:00:04.91 bitrate=10891.9kbits/s speed=0.0703x    frame=  193 fps=2.7 q=35.0 size=    6539kB time=00:00:05.00 bitrate=10711.1kbits/s speed=0.0707x    frame=  195 fps=2.7 q=35.0 size=    6539kB time=00:00:05.08 bitrate=10536.2kbits/s speed=0.0713x    frame=  197 fps=2.7 q=35.0 size=    6539kB time=00:00:05.16 bitrate=10365.0kbits/s speed=0.0715x    frame=  198 fps=2.7 q=35.0 size=    6539kB time=00:00:05.20 bitrate=10283.4kbits/s speed=0.0713x    frame=  199 fps=2.7 q=35.0 size=    6539kB time=00:00:05.25 bitrate=10201.1kbits/s speed=0.0713x    frame=  201 fps=2.7 q=35.0 size=    6539kB time=00:00:05.33 bitrate=10042.4kbits/s speed=0.0718x    frame=  203 fps=2.7 q=35.0 size=    6539kB time=00:00:05.41 bitrate=9886.7kbits/s speed=0.0718x    frame=  205 fps=2.7 q=35.0 size=    6539kB time=00:00:05.50 bitrate=9737.5kbits/s speed=0.0722x    frame=  206 fps=2.7 q=35.0 size=    6539kB time=00:00:05.54 bitrate=9663.8kbits/s speed=0.0723x    frame=  208 fps=2.7 q=35.0 size=    6539kB time=00:00:05.62 bitrate=9521.2kbits/s speed=0.0726x    frame=  210 fps=2.7 q=35.0 size=    6539kB time=00:00:05.70 bitrate=9382.8kbits/s speed=0.073x    frame=  212 fps=2.7 q=35.0 size=    6539kB time=00:00:05.79 bitrate=9246.7kbits/s speed=0.0734x    frame=  214 fps=2.7 q=35.0 size=    6539kB time=00:00:05.87 bitrate=9116.1kbits/s speed=0.0734x    frame=  216 fps=2.7 q=35.0 size=    6539kB time=00:00:05.95 bitrate=8989.1kbits/s speed=0.0739x    frame=  218 fps=2.7 q=35.0 size=    6539kB time=00:00:06.04 bitrate=8864.2kbits/s speed=0.0745x    frame=  219 fps=2.7 q=35.0 size=    6539kB time=00:00:06.08 bitrate=8804.4kbits/s speed=0.0744x    frame=  220 fps=2.7 q=35.0 size=    6539kB time=00:00:06.12 bitrate=8744.1kbits/s speed=0.0744x    frame=  222 fps=2.7 q=35.0 size=    6539kB time=00:00:06.20 bitrate=8627.2kbits/s speed=0.0743x    frame=  225 fps=2.7 q=35.0 size=    6539kB time=00:00:06.33 bitrate=8456.9kbits/s speed=0.0753x    frame=  228 fps=2.6 q=34.0 size=    6539kB time=00:00:06.45 bitrate=8293.3kbits/s speed=0.0748x    frame=  231 fps=2.7 q=34.0 size=    6539kB time=00:00:06.58 bitrate=8135.8kbits/s speed=0.0756x    frame=  233 fps=2.6 q=34.0 size=    6539kB time=00:00:06.66 bitrate=8033.3kbits/s speed=0.0758x    frame=  234 fps=2.6 q=34.0 size=    6539kB time=00:00:06.70 bitrate=7984.2kbits/s speed=0.0758x    frame=  235 fps=2.6 q=34.0 size=    6539kB time=00:00:06.75 bitrate=7934.6kbits/s speed=0.0758x    frame=  236 fps=2.6 q=34.0 size=    6539kB time=00:00:06.79 bitrate=7885.5kbits/s speed=0.0758x    frame=  238 fps=2.6 q=34.0 size=    6539kB time=00:00:06.87 bitrate=7790.3kbits/s speed=0.0761x    frame=  240 fps=2.6 q=34.0 size=    6539kB time=00:00:06.95 bitrate=7697.4kbits/s speed=0.0766x    frame=  241 fps=2.6 q=34.0 size=    6539kB time=00:00:07.00 bitrate=7651.2kbits/s speed=0.0763x    frame=  242 fps=2.6 q=34.0 size=    6539kB time=00:00:07.04 bitrate=7605.6kbits/s speed=0.0764x    frame=  244 fps=2.6 q=34.0 size=    6539kB time=00:00:07.12 bitrate=7517.0kbits/s speed=0.0767x    frame=  246 fps=2.6 q=34.0 size=    6539kB time=00:00:07.20 bitrate=7430.5kbits/s speed=0.0769x    frame=  247 fps=2.6 q=34.0 size=    6539kB time=00:00:07.25 bitrate=7387.4kbits/s speed=0.0767x    frame=  249 fps=2.6 q=31.0 size=    6539kB time=00:00:07.33 bitrate=7303.8kbits/s speed=0.0772x    frame=  250 fps=2.6 q=34.0 size=    6539kB time=00:00:07.37 bitrate=7262.2kbits/s speed=0.0772x    frame=  252 fps=2.6 q=34.0 size=    6539kB time=00:00:07.45 bitrate=7181.4kbits/s speed=0.0775x    frame=  254 fps=2.6 q=34.0 size=    9763kB time=00:00:07.54 bitrate=10603.1kbits/s speed=0.0779x    frame=  259 fps=2.7 q=34.0 size=    9763kB time=00:00:07.75 bitrate=10318.5kbits/s speed=0.0796x    frame=  262 fps=2.7 q=34.0 size=    9763kB time=00:00:07.87 bitrate=10154.8kbits/s speed=0.0798x    frame=  266 fps=2.7 q=33.0 size=    9763kB time=00:00:08.04 bitrate=9943.9kbits/s speed=0.0805x    frame=  267 fps=2.7 q=33.0 size=    9763kB time=00:00:08.08 bitrate=9893.5kbits/s speed=0.0804x    frame=  268 fps=2.7 q=33.0 size=    9763kB time=00:00:08.12 bitrate=9842.4kbits/s speed=0.0804x    frame=  270 fps=2.6 q=33.0 size=    9763kB time=00:00:08.20 bitrate=9742.8kbits/s speed=0.0805x    frame=  272 fps=2.6 q=33.0 size=    9763kB time=00:00:08.29 bitrate=9644.2kbits/s speed=0.0808x    frame=  274 fps=2.6 q=33.0 size=    9763kB time=00:00:08.37 bitrate=9548.6kbits/s speed=0.0808x    frame=  276 fps=2.6 q=33.0 size=    9763kB time=00:00:08.45 bitrate=9454.9kbits/s speed=0.081x    frame=  278 fps=2.6 q=33.0 size=    9763kB time=00:00:08.54 bitrate=9361.9kbits/s speed=0.0813x    frame=  279 fps=2.6 q=33.0 size=    9763kB time=00:00:08.58 bitrate=9317.2kbits/s speed=0.0808x    frame=  282 fps=2.6 q=33.0 size=    9763kB time=00:00:08.70 bitrate=9183.5kbits/s speed=0.0815x    frame=  284 fps=2.6 q=33.0 size=    9763kB time=00:00:08.79 bitrate=9095.8kbits/s speed=0.0817x    frame=  287 fps=2.6 q=33.0 size=    9763kB time=00:00:08.91 bitrate=8968.3kbits/s speed=0.0817x    frame=  289 fps=2.6 q=33.0 size=    9763kB time=00:00:09.00 bitrate=8885.6kbits/s speed=0.0821x    frame=  292 fps=2.6 q=33.0 size=    9763kB time=00:00:09.12 bitrate=8763.9kbits/s speed=0.0827x    frame=  293 fps=2.6 q=33.0 size=    9763kB time=00:00:09.16 bitrate=8723.7kbits/s speed=0.0821x    frame=  296 fps=2.6 q=33.0 size=    9763kB time=00:00:09.29 bitrate=8606.4kbits/s speed=0.0828x    frame=  299 fps=2.6 q=33.0 size=    9763kB time=00:00:09.41 bitrate=8492.1kbits/s speed=0.0831x    frame=  301 fps=2.6 q=33.0 size=    9763kB time=00:00:09.50 bitrate=8418.0kbits/s speed=0.083x    frame=  303 fps=2.6 q=33.0 size=    9763kB time=00:00:09.58 bitrate=8345.0kbits/s speed=0.0832x    frame=  305 fps=2.6 q=33.0 size=    9763kB time=00:00:09.66 bitrate=8272.5kbits/s speed=0.0834x    frame=  307 fps=2.6 q=33.0 size=    9763kB time=00:00:09.75 bitrate=8202.1kbits/s speed=0.0836x    frame=  310 fps=2.6 q=33.0 size=    9763kB time=00:00:09.87 bitrate=8098.3kbits/s speed=0.0843x    frame=  311 fps=2.6 q=33.0 size=    9763kB time=00:00:09.91 bitrate=8064.0kbits/s speed=0.0839x    frame=  313 fps=2.6 q=33.0 size=    9763kB time=00:00:10.00 bitrate=7997.1kbits/s speed=0.0842x    frame=  317 fps=2.7 q=32.0 size=    9763kB time=00:00:10.16 bitrate=7865.7kbits/s speed=0.085x    frame=  319 fps=2.7 q=32.0 size=    9763kB time=00:00:10.25 bitrate=7802.1kbits/s speed=0.0852x    frame=  320 fps=2.6 q=32.0 size=    9763kB time=00:00:10.29 bitrate=7770.2kbits/s speed=0.0846x    frame=  324 fps=2.6 q=32.0 size=    9763kB time=00:00:10.45 bitrate=7646.9kbits/s speed=0.0855x    frame=  326 fps=2.7 q=32.0 size=    9763kB time=00:00:10.54 bitrate=7586.0kbits/s speed=0.0858x    frame=  327 fps=2.6 q=32.0 size=    9763kB time=00:00:10.58 bitrate=7556.6kbits/s speed=0.0856x    frame=  330 fps=2.7 q=32.0 size=    9763kB time=00:00:10.70 bitrate=7468.4kbits/s speed=0.0863x    frame=  333 fps=2.7 q=32.0 size=    9763kB time=00:00:10.83 bitrate=7382.2kbits/s speed=0.0869x    frame=  334 fps=2.7 q=32.0 size=    9763kB time=00:00:10.87 bitrate=7353.7kbits/s speed=0.0868x    frame=  340 fps=2.7 q=32.0 size=   13306kB time=00:00:11.12 bitrate=9797.2kbits/s speed=0.0884x    frame=  342 fps=2.7 q=32.0 size=   13306kB time=00:00:11.20 bitrate=9724.7kbits/s speed=0.0887x    frame=  343 fps=2.7 q=32.0 size=   13306kB time=00:00:11.25 bitrate=9688.4kbits/s speed=0.0887x    frame=  345 fps=2.7 q=32.0 size=   13306kB time=00:00:11.33 bitrate=9617.4kbits/s speed=0.089x    frame=  347 fps=2.7 q=32.0 size=   13306kB time=00:00:11.41 bitrate=9546.7kbits/s speed=0.0893x    frame=  349 fps=2.7 q=32.0 size=   13306kB time=00:00:11.50 bitrate=9477.8kbits/s speed=0.0894x    frame=  352 fps=2.7 q=32.0 size=   13306kB time=00:00:11.62 bitrate=9375.9kbits/s speed=0.0896x    frame=  355 fps=2.7 q=32.0 size=   13306kB time=00:00:11.75 bitrate=9276.1kbits/s speed=0.0898x    frame=  359 fps=2.7 q=32.0 size=   13306kB time=00:00:11.91 bitrate=9146.1kbits/s speed=0.0901x    frame=  362 fps=2.7 q=31.0 size=   13306kB time=00:00:12.04 bitrate=9051.2kbits/s speed=0.0907x    frame=  365 fps=2.7 q=31.0 size=   13306kB time=00:00:12.16 bitrate=8958.2kbits/s speed=0.0911x    frame=  367 fps=2.7 q=31.0 size=   13306kB time=00:00:12.25 bitrate=8897.5kbits/s speed=0.0914x    frame=  369 fps=2.7 q=31.0 size=   13306kB time=00:00:12.33 bitrate=8837.7kbits/s speed=0.0916x    frame=  372 fps=2.8 q=31.0 size=   13306kB time=00:00:12.45 bitrate=8749.0kbits/s speed=0.0921x    frame=  374 fps=2.7 q=31.0 size=   13306kB time=00:00:12.54 bitrate=8690.4kbits/s speed=0.0922x    frame=  378 fps=2.8 q=31.0 size=   13306kB time=00:00:12.70 bitrate=8576.9kbits/s speed=0.0929x    frame=  382 fps=2.8 q=31.0 size=   13306kB time=00:00:12.87 bitrate=8465.6kbits/s speed=0.0934x    frame=  386 fps=2.8 q=30.0 size=   13306kB time=00:00:13.04 bitrate=8357.3kbits/s speed=0.0941x    frame=  389 fps=2.8 q=30.0 size=   13306kB time=00:00:13.16 bitrate=8277.9kbits/s speed=0.0943x    frame=  393 fps=2.8 q=30.0 size=   13306kB time=00:00:13.33 bitrate=8174.9kbits/s speed=0.0949x    frame=  396 fps=2.8 q=30.0 size=   13306kB time=00:00:13.45 bitrate=8098.9kbits/s speed=0.0951x    frame=  402 fps=2.8 q=30.0 size=   13306kB time=00:00:13.70 bitrate=7951.2kbits/s speed=0.0963x    frame=  403 fps=2.8 q=30.0 size=   13306kB time=00:00:13.75 bitrate=7927.0kbits/s speed=0.096x    frame=  408 fps=2.8 q=30.0 size=   13306kB time=00:00:13.95 bitrate=7808.8kbits/s speed=0.097x    frame=  410 fps=2.8 q=30.0 size=   13306kB time=00:00:14.04 bitrate=7762.1kbits/s speed=0.0972x    frame=  411 fps=2.8 q=30.0 size=   13306kB time=00:00:14.08 bitrate=7739.5kbits/s speed=0.097x    frame=  416 fps=2.9 q=29.0 size=   13306kB time=00:00:14.29 bitrate=7626.4kbits/s speed=0.0979x    frame=  419 fps=2.8 q=29.0 size=   13306kB time=00:00:14.41 bitrate=7560.2kbits/s speed=0.0981x    frame=  423 fps=2.9 q=29.0 size=   13306kB time=00:00:14.58 bitrate=7474.2kbits/s speed=0.0988x    frame=  426 fps=2.9 q=29.0 size=   13306kB time=00:00:14.70 bitrate=7410.7kbits/s speed=0.0991x    frame=  428 fps=2.9 q=27.0 size=   13306kB time=00:00:14.79 bitrate=7368.6kbits/s speed=0.0991x    frame=  433 fps=2.9 q=29.0 size=   16737kB time=00:00:15.00 bitrate=9139.8kbits/s speed= 0.1x    frame=  437 fps=2.9 q=29.0 size=   16737kB time=00:00:15.16 bitrate=9039.2kbits/s speed=0.101x    frame=  441 fps=2.9 q=29.0 size=   16737kB time=00:00:15.33 bitrate=8941.3kbits/s speed=0.101x    frame=  444 fps=2.9 q=29.0 size=   16737kB time=00:00:15.45 bitrate=8869.0kbits/s speed=0.101x    frame=  447 fps=2.9 q=29.0 size=   16737kB time=00:00:15.58 bitrate=8797.9kbits/s speed=0.101x    frame=  450 fps=2.9 q=29.0 size=   16737kB time=00:00:15.70 bitrate=8727.9kbits/s speed=0.101x    frame=  455 fps=2.9 q=28.0 size=   16737kB time=00:00:15.91 bitrate=8613.3kbits/s speed=0.102x    frame=  456 fps=2.9 q=28.0 size=   16737kB time=00:00:15.95 bitrate=8591.2kbits/s speed=0.102x    frame=  458 fps=2.9 q=28.0 size=   16737kB time=00:00:16.04 bitrate=8546.2kbits/s speed=0.101x    frame=  461 fps=2.9 q=28.0 size=   16737kB time=00:00:16.16 bitrate=8480.1kbits/s speed=0.102x    frame=  464 fps=2.9 q=28.0 size=   16737kB time=00:00:16.29 bitrate=8415.0kbits/s speed=0.101x    frame=  466 fps=2.9 q=28.0 size=   16737kB time=00:00:16.37 bitrate=8372.4kbits/s speed=0.101x    frame=  470 fps=2.9 q=29.0 size=   16737kB time=00:00:16.54 bitrate=8287.9kbits/s speed=0.102x    frame=  471 fps=2.9 q=29.0 size=   16737kB time=00:00:16.58 bitrate=8267.4kbits/s speed=0.101x    frame=  476 fps=2.9 q=29.0 size=   16737kB time=00:00:16.79 bitrate=8164.5kbits/s speed=0.102x    frame=  477 fps=2.9 q=29.0 size=   16737kB time=00:00:16.83 bitrate=8144.6kbits/s speed=0.101x    frame=  481 fps=2.9 q=29.0 size=   16737kB time=00:00:17.00 bitrate=8064.6kbits/s speed=0.102x    frame=  483 fps=2.9 q=29.0 size=   16737kB time=00:00:17.08 bitrate=8025.4kbits/s speed=0.102x    frame=  484 fps=2.9 q=26.0 size=   16737kB time=00:00:17.12 bitrate=8005.7kbits/s speed=0.102x    frame=  489 fps=2.9 q=29.0 size=   19871kB time=00:00:17.33 bitrate=9390.8kbits/s speed=0.102x    frame=  493 fps=2.9 q=29.0 size=   19871kB time=00:00:17.50 bitrate=9301.2kbits/s speed=0.103x    frame=  494 fps=2.9 q=29.0 size=   19871kB time=00:00:17.54 bitrate=9278.9kbits/s speed=0.103x    frame=  498 fps=2.9 q=29.0 size=   19871kB time=00:00:17.70 bitrate=9191.9kbits/s speed=0.103x    frame=  500 fps=2.6 q=-1.0 Lsize=   24456kB time=00:00:20.70 bitrate=9674.2kbits/s speed=0.108x    
video:24451kB audio:0kB subtitle:0kB other streams:0kB global headers:0kB muxing overhead: 0.019810%
bench: utime=712.732s
bench: maxrss=2154388kB
[libx264 @ 0x35771c0] frame I:6     Avg QP:22.55  size:214054
[libx264 @ 0x35771c0] frame P:273   Avg QP:28.99  size: 61806
[libx264 @ 0x35771c0] frame B:221   Avg QP:28.06  size: 31131
[libx264 @ 0x35771c0] consecutive B-frames: 35.2% 11.6% 18.0% 35.2%
[libx264 @ 0x35771c0] mb I  I16..4: 21.5% 73.1%  5.4%
[libx264 @ 0x35771c0] mb P  I16..4: 19.8% 22.1%  0.3%  P16..4: 28.2%  2.4%  1.8%  0.0%  0.0%    skip:25.5%
[libx264 @ 0x35771c0] mb B  I16..4:  1.2%  2.1%  0.1%  B16..8: 33.7%  2.9%  0.5%  direct: 1.5%  skip:57.9%  L0:42.6% L1:54.3% BI: 3.1%
[libx264 @ 0x35771c0] final ratefactor: 26.01
[libx264 @ 0x35771c0] 8x8 transform intra:53.8% inter:85.7%
[libx264 @ 0x35771c0] direct mvs  spatial:99.1% temporal:0.9%
[libx264 @ 0x35771c0] coded y,uvDC,uvAC intra: 16.7% 26.7% 2.0% inter: 6.8% 7.2% 0.1%
[libx264 @ 0x35771c0] i16 v,h,dc,p: 22% 26%  9% 43%
[libx264 @ 0x35771c0] i8 v,h,dc,ddl,ddr,vr,hd,vl,hu: 17% 13% 28%  6%  7%  7%  8%  6%  7%
[libx264 @ 0x35771c0] i4 v,h,dc,ddl,ddr,vr,hd,vl,hu: 14% 16%  8%  7% 13% 11% 15%  7% 11%
[libx264 @ 0x35771c0] i8c dc,h,v,p: 70% 18%  9%  4%
[libx264 @ 0x35771c0] Weighted P-Frames: Y:1.1% UV:0.7%
[libx264 @ 0x35771c0] ref P L0: 65.2% 16.7%  8.8%  3.0%  1.9%  1.6%  1.4%  1.1%  0.3%  0.0%
[libx264 @ 0x35771c0] ref B L0: 88.7%  6.3%  2.5%  1.0%  0.7%  0.4%  0.3%
[libx264 @ 0x35771c0] ref B L1: 98.2%  1.8%
[libx264 @ 0x35771c0] kb/s:9614.30
